<svg width="18" height="21" viewBox="0 0 18 21" fill="none" xmlns="http://www.w3.org/2000/svg">
<path d="M17.2435 7.05579C17.1475 7.11178 14.8628 8.29332 14.8628 10.9131C14.9705 13.9007 17.746 14.9485 17.7936 14.9485C17.746 15.0045 17.3745 16.3758 16.2743 17.8133C15.4012 19.0515 14.4321 20.3 12.9605 20.3C11.5607 20.3 11.0582 19.4747 9.44298 19.4747C7.70842 19.4747 7.21762 20.3 5.88958 20.3C4.41797 20.3 3.37707 18.9846 2.45634 17.758C1.26017 16.1526 0.243463 13.6332 0.20757 11.2141C0.183381 9.93221 0.447116 8.67214 1.1166 7.60185C2.06152 6.10765 3.74849 5.09335 5.59073 5.0599C7.00226 5.01555 8.25851 5.96296 9.11995 5.96296C9.94548 5.96296 11.4889 5.0599 13.2351 5.0599C13.9889 5.06063 15.9989 5.27221 17.2435 7.05579ZM9.00056 4.80396C8.74931 3.63333 9.44298 2.46269 10.0891 1.71596C10.9146 0.812898 12.2184 0.199951 13.3428 0.199951C13.4146 1.37058 12.9597 2.51868 12.1467 3.35485C11.4171 4.25791 10.1608 4.93775 9.00056 4.80396Z" fill="black"/>
</svg>
