<svg width="26" height="26" viewBox="0 0 26 26" fill="none" xmlns="http://www.w3.org/2000/svg">
<path d="M2.58832 7.72988L7.59104 11.3032C7.85135 11.4891 7.98151 11.5821 8.11773 11.6035C8.23759 11.6224 8.36035 11.6034 8.46891 11.5492C8.59228 11.4876 8.68825 11.3596 8.88019 11.1037L9.93731 9.69419C9.99158 9.62182 10.0187 9.58563 10.0506 9.55442C10.0789 9.5267 10.11 9.50194 10.1434 9.48052C10.1809 9.45641 10.2222 9.43803 10.3049 9.40129L14.8183 7.39536C15.0054 7.3122 15.0989 7.27063 15.1695 7.2057C15.2318 7.14827 15.281 7.07792 15.3134 6.99957C15.35 6.91098 15.3569 6.80883 15.3705 6.60455L15.7009 1.64756M14.7497 14.7499L17.8017 16.0579C18.1558 16.2097 18.3328 16.2856 18.4266 16.4116C18.5089 16.5222 18.5494 16.6583 18.5409 16.7959C18.5312 16.9527 18.4243 17.113 18.2106 17.4335L16.7768 19.5843C16.6754 19.7363 16.6248 19.8123 16.5579 19.8673C16.4986 19.916 16.4304 19.9525 16.357 19.9748C16.2741 19.9999 16.1828 19.9999 16.0002 19.9999H13.6724C13.4305 19.9999 13.3095 19.9999 13.2066 19.9595C13.1157 19.9237 13.0353 19.8657 12.9726 19.7908C12.9017 19.706 12.8634 19.5912 12.7869 19.3618L11.9553 16.8667C11.9101 16.7313 11.8876 16.6636 11.8816 16.5949C11.8764 16.5339 11.8807 16.4724 11.8946 16.4128C11.9102 16.3456 11.9421 16.2817 12.0059 16.1541L12.6377 14.8906C12.766 14.6339 12.8302 14.5055 12.9291 14.4258C13.0162 14.3556 13.1217 14.3119 13.2329 14.3C13.3592 14.2864 13.4953 14.3318 13.7676 14.4226L14.7497 14.7499ZM24.6663 12.9999C24.6663 19.4432 19.443 24.6666 12.9997 24.6666C6.55635 24.6666 1.33301 19.4432 1.33301 12.9999C1.33301 6.5566 6.55635 1.33325 12.9997 1.33325C19.443 1.33325 24.6663 6.5566 24.6663 12.9999Z" stroke="#475467" stroke-width="2.34711" stroke-linecap="round" stroke-linejoin="round"/>
</svg>
