<svg width="232" height="213" viewBox="0 0 232 213" fill="none" xmlns="http://www.w3.org/2000/svg">
  <circle cx="204.999" cy="128.143" r="11.6437" fill="#D0D5DD" />
  <path fill-rule="evenodd" clip-rule="evenodd"
    d="M168.826 212.342H92.1176C86.9372 212.342 82.7383 208.154 82.7383 202.988V9.93343C82.7383 4.76659 86.9372 0.578613 92.1176 0.578613H105.731C109.079 0.578613 111.794 3.2863 111.794 6.62652C111.794 9.96675 114.509 12.6739 117.858 12.6739H143.086C146.434 12.6739 149.149 9.96675 149.149 6.62652C149.149 3.2863 151.864 0.578613 155.213 0.578613H168.826C174.006 0.578613 178.206 4.76659 178.206 9.93343V202.988C178.206 208.154 174.006 212.342 168.826 212.342Z"
    fill="white" />
  <path fill-rule="evenodd" clip-rule="evenodd"
    d="M92.3097 0.480363C87.2965 0.480363 83.2167 4.57083 83.2167 9.59961V202.743C83.2167 207.771 87.2965 211.862 92.3097 211.862H168.633C173.647 211.862 177.727 207.771 177.727 202.743V9.59961C177.727 4.57083 173.647 0.480363 168.633 0.480363H155.089C151.894 0.480363 149.295 3.08711 149.295 6.29062C149.295 9.75918 146.481 12.5812 143.022 12.5812H117.921C114.462 12.5812 111.648 9.75918 111.648 6.29062C111.648 3.08711 109.05 0.480363 105.855 0.480363H92.3097ZM168.633 212.342H92.3097C87.0317 212.342 82.7383 208.036 82.7383 202.743V9.59961C82.7383 4.30633 87.0317 0 92.3097 0H105.855C109.313 0 112.127 2.82206 112.127 6.29062C112.127 9.49468 114.727 12.1009 117.921 12.1009H143.022C146.217 12.1009 148.816 9.49468 148.816 6.29062C148.816 2.82206 151.63 0 155.089 0H168.633C173.912 0 178.206 4.30633 178.206 9.59961V202.743C178.206 208.036 173.912 212.342 168.633 212.342Z"
    fill="black" />
  <path fill-rule="evenodd" clip-rule="evenodd"
    d="M14.4647 64.5128C14.4647 68.5072 11.2269 71.7451 7.23264 71.7451C3.2384 71.7451 0 68.5072 0 64.5128C0 60.5184 3.2384 57.2804 7.23264 57.2804C11.2269 57.2804 14.4647 60.5184 14.4647 64.5128Z"
    fill="#F2F4F7" />
  <path fill-rule="evenodd" clip-rule="evenodd"
    d="M46.8512 61.9091H19.1085C18.4605 61.9091 17.9365 61.3911 17.9365 60.7519C17.9365 60.1127 18.4605 59.5947 19.1085 59.5947H46.8512C47.4986 59.5947 48.0232 60.1127 48.0232 60.7519C48.0232 61.3911 47.4986 61.9091 46.8512 61.9091Z"
    fill="#F2F4F7" />
  <path fill-rule="evenodd" clip-rule="evenodd"
    d="M46.8512 68.2736H19.1085C18.4605 68.2736 17.9365 67.7552 17.9365 67.1161C17.9365 66.4771 18.4605 65.9592 19.1085 65.9592H46.8512C47.4986 65.9592 48.0232 66.4771 48.0232 67.1161C48.0232 67.7552 47.4986 68.2736 46.8512 68.2736Z"
    fill="#F2F4F7" />
  <path fill-rule="evenodd" clip-rule="evenodd"
    d="M14.4647 87.6563C14.4647 91.6507 11.2269 94.8887 7.23264 94.8887C3.2384 94.8887 0 91.6507 0 87.6563C0 83.6619 3.2384 80.424 7.23264 80.424C11.2269 80.424 14.4647 83.6619 14.4647 87.6563Z"
    fill="#F2F4F7" />
  <path fill-rule="evenodd" clip-rule="evenodd"
    d="M46.8512 85.0526H19.1085C18.4605 85.0526 17.9365 84.5347 17.9365 83.8955C17.9365 83.2562 18.4605 82.7383 19.1085 82.7383H46.8512C47.4986 82.7383 48.0232 83.2562 48.0232 83.8955C48.0232 84.5347 47.4986 85.0526 46.8512 85.0526Z"
    fill="#F2F4F7" />
  <path fill-rule="evenodd" clip-rule="evenodd"
    d="M46.8512 91.4171H19.1085C18.4605 91.4171 17.9365 90.8988 17.9365 90.2597C17.9365 89.6206 18.4605 89.1028 19.1085 89.1028H46.8512C47.4986 89.1028 48.0232 89.6206 48.0232 90.2597C48.0232 90.8988 47.4986 91.4171 46.8512 91.4171Z"
    fill="#F2F4F7" />
  <path fill-rule="evenodd" clip-rule="evenodd"
    d="M14.4647 110.8C14.4647 114.794 11.2269 118.032 7.23264 118.032C3.2384 118.032 0 114.794 0 110.8C0 106.805 3.2384 103.568 7.23264 103.568C11.2269 103.568 14.4647 106.805 14.4647 110.8Z"
    fill="#F2F4F7" />
  <path fill-rule="evenodd" clip-rule="evenodd"
    d="M46.8512 108.775H19.1085C18.4605 108.775 17.9365 108.257 17.9365 107.618C17.9365 106.978 18.4605 106.46 19.1085 106.46H46.8512C47.4986 106.46 48.0232 106.978 48.0232 107.618C48.0232 108.257 47.4986 108.775 46.8512 108.775Z"
    fill="#F2F4F7" />
  <path fill-rule="evenodd" clip-rule="evenodd"
    d="M46.8512 114.561H19.1085C18.4605 114.561 17.9365 114.042 17.9365 113.403C17.9365 112.764 18.4605 112.246 19.1085 112.246H46.8512C47.4986 112.246 48.0232 112.764 48.0232 113.403C48.0232 114.042 47.4986 114.561 46.8512 114.561Z"
    fill="#F2F4F7" />
  <path fill-rule="evenodd" clip-rule="evenodd"
    d="M14.4647 133.943C14.4647 137.938 11.2269 141.176 7.23264 141.176C3.2384 141.176 0 137.938 0 133.943C0 129.949 3.2384 126.711 7.23264 126.711C11.2269 126.711 14.4647 129.949 14.4647 133.943Z"
    fill="#F2F4F7" />
  <path fill-rule="evenodd" clip-rule="evenodd"
    d="M46.8512 131.918H19.1085C18.4605 131.918 17.9365 131.4 17.9365 130.761C17.9365 130.122 18.4605 129.604 19.1085 129.604H46.8512C47.4986 129.604 48.0232 130.122 48.0232 130.761C48.0232 131.4 47.4986 131.918 46.8512 131.918Z"
    fill="#F2F4F7" />
  <path fill-rule="evenodd" clip-rule="evenodd"
    d="M46.8512 138.283H19.1085C18.4605 138.283 17.9365 137.765 17.9365 137.125C17.9365 136.486 18.4605 135.969 19.1085 135.969H46.8512C47.4986 135.969 48.0232 136.486 48.0232 137.125C48.0232 137.765 47.4986 138.283 46.8512 138.283Z"
    fill="#F2F4F7" />
  <path fill-rule="evenodd" clip-rule="evenodd"
    d="M137.264 111.668H76.8142C75.2927 111.668 74.0596 110.437 74.0596 108.92V39.7779C74.0596 38.26 75.2927 37.0298 76.8142 37.0298H137.264C138.786 37.0298 140.019 38.26 140.019 39.7779V108.92C140.019 110.437 138.786 111.668 137.264 111.668Z"
    fill="#F2F4F7" />
  <path fill-rule="evenodd" clip-rule="evenodd"
    d="M161.244 131.918H100.279C99.5387 131.918 98.9385 131.27 98.9385 130.472C98.9385 129.673 99.5387 129.025 100.279 129.025H161.244C161.984 129.025 162.583 129.673 162.583 130.472C162.583 131.27 161.984 131.918 161.244 131.918Z"
    fill="#F2F4F7" />
  <path fill-rule="evenodd" clip-rule="evenodd"
    d="M161.244 141.176H100.279C99.5387 141.176 98.9385 140.528 98.9385 139.73C98.9385 138.931 99.5387 138.283 100.279 138.283H161.244C161.984 138.283 162.583 138.931 162.583 139.73C162.583 140.528 161.984 141.176 161.244 141.176Z"
    fill="#F2F4F7" />
  <path fill-rule="evenodd" clip-rule="evenodd"
    d="M161.244 149.855H100.279C99.5387 149.855 98.9385 149.207 98.9385 148.408C98.9385 147.609 99.5387 146.962 100.279 146.962H161.244C161.984 146.962 162.583 147.609 162.583 148.408C162.583 149.207 161.984 149.855 161.244 149.855Z"
    fill="#F2F4F7" />
  <path fill-rule="evenodd" clip-rule="evenodd"
    d="M161.244 159.112H100.279C99.5387 159.112 98.9385 158.464 98.9385 157.666C98.9385 156.867 99.5387 156.219 100.279 156.219H161.244C161.984 156.219 162.583 156.867 162.583 157.666C162.583 158.464 161.984 159.112 161.244 159.112Z"
    fill="#F2F4F7" />
  <path fill-rule="evenodd" clip-rule="evenodd"
    d="M161.244 167.791H100.279C99.5387 167.791 98.9385 167.144 98.9385 166.345C98.9385 165.546 99.5387 164.898 100.279 164.898H161.244C161.984 164.898 162.583 165.546 162.583 166.345C162.583 167.144 161.984 167.791 161.244 167.791Z"
    fill="#F2F4F7" />
  <path fill-rule="evenodd" clip-rule="evenodd"
    d="M183.98 193.249H122.094C121.129 193.249 120.347 192.473 120.347 191.518V180.515C120.347 179.559 121.129 178.784 122.094 178.784H183.98C184.946 178.784 185.727 179.559 185.727 180.515V191.518C185.727 192.473 184.946 193.249 183.98 193.249Z"
    fill="#F2F4F7" />
  <path fill-rule="evenodd" clip-rule="evenodd"
    d="M56 212.001H25.3726C19.5071 212.001 14.752 207.246 14.752 201.381V156.243H66.6206V201.381C66.6206 207.246 61.8655 212.001 56 212.001Z"
    fill="#F2F4F7" />
  <path fill-rule="evenodd" clip-rule="evenodd"
    d="M110.708 50.3706C96.786 36.7653 79.1689 57.3316 79.1689 57.3316C79.1689 57.3316 63.7005 38.4344 56.6704 73.6708C56.6704 73.6708 38.7292 61.1704 44.4806 89.922C44.4806 89.922 34.4665 88.4166 36.7367 106.38C35.1608 106.666 34.0579 107.031 34.0579 107.031C32.2365 96.9883 27.4558 81.1067 12.659 89.5302C-2.13844 97.9524 19.9441 110.018 18.5466 111.611C17.1492 113.205 9.01685 107.031 4.00877 113.433C-0.999977 119.834 31.098 129.823 19.4885 129.367C7.87838 128.913 3.09773 137.791 18.5466 144.165C33.9949 150.539 35.6083 156.608 35.8787 156.243C37.4579 154.106 38.8688 152.126 40.134 150.281C40.4628 150.76 40.7962 151.235 41.1403 151.703L44.4806 156.243C44.4806 156.243 88.8758 136.453 78.7509 131.065C68.6254 125.676 69.258 124.727 79.3835 114.918C89.5084 105.109 84.7626 103.527 77.485 100.364C70.2073 97.199 82.2791 91.1873 87.6098 88.6561C92.9413 86.1249 110.708 80.4298 99.0006 70.621C87.2938 60.8121 124.63 63.9759 110.708 50.3706Z"
    fill="#FCFCFD" />
  <path fill-rule="evenodd" clip-rule="evenodd"
    d="M15.0868 201.381V156.243H14.416V201.381C14.416 207.422 19.3308 212.337 25.372 212.337V211.666C19.7004 211.666 15.0868 207.051 15.0868 201.381ZM76.0284 61.8225C76.0646 61.8346 76.1015 61.8406 76.1378 61.8406C76.2766 61.8406 76.4068 61.7541 76.4551 61.6152C77.2823 59.2256 84.4486 52.7845 84.521 52.7201C84.6592 52.596 84.6706 52.384 84.5472 52.2465C84.4231 52.1083 84.2104 52.0969 84.0735 52.2203C83.7723 52.4893 76.7047 58.8438 75.8211 61.3952C75.7601 61.5703 75.8533 61.7615 76.0284 61.8225ZM28.1058 148.631C25.4572 146.951 22.284 145.344 18.674 143.855C12.0277 141.113 8.47806 137.564 9.17778 134.362C9.82383 131.406 14.0537 129.48 19.475 129.703C19.6662 129.712 19.8158 129.566 19.8232 129.381C19.8299 129.196 19.6857 129.039 19.5012 129.032C13.6565 128.803 9.25091 130.888 8.52234 134.219C7.74748 137.765 11.4467 141.599 18.4177 144.475C21.9915 145.95 25.1305 147.538 27.7469 149.197C27.8026 149.233 27.8643 149.25 27.926 149.25C28.0374 149.25 28.1461 149.195 28.2098 149.094C28.3091 148.937 28.2628 148.73 28.1058 148.631ZM87.4655 88.3529C82.0361 90.9311 74.8242 94.7303 74.8779 97.9532C74.896 99.0514 75.7279 99.9658 77.3507 100.672L78.0444 100.971C81.6108 102.514 84.4271 103.733 84.8068 105.813C85.1651 107.775 83.3678 110.591 79.15 114.677C73.5146 120.136 70.8211 122.866 71.1579 125.25C71.439 127.242 73.6783 128.745 78.5925 131.361C78.6428 131.388 78.6965 131.4 78.7501 131.4C78.8696 131.4 78.9863 131.336 79.046 131.223C79.1332 131.059 79.0715 130.856 78.9078 130.768C74.2976 128.315 72.0609 126.849 71.822 125.156C71.5315 123.096 74.1473 120.458 79.6163 115.159C84.0702 110.845 85.8748 107.924 85.4669 105.692C85.0228 103.259 82.0609 101.978 78.3107 100.356L77.6177 100.056C76.2585 99.4646 75.5621 98.7528 75.5487 97.9418C75.5138 95.8433 79.6203 92.821 87.7533 88.9594C87.9203 88.8796 87.9921 88.6797 87.9123 88.5126C87.8331 88.3449 87.6339 88.2745 87.4655 88.3529ZM44.1404 155.215L41.4099 151.504C41.1114 151.099 40.8256 150.687 40.5418 150.277C42.2016 147.85 43.6513 145.599 44.8804 143.533C44.2592 149.207 44.1518 153.38 44.1404 155.215ZM90.3697 61.3154C90.265 61.1637 90.0557 61.1242 89.9034 61.2281C65.3803 78.0382 54.2451 102.981 49.2216 120.945C48.6849 122.867 48.2106 124.745 47.7806 126.581C46.3368 126.057 44.5865 126.326 43.5977 126.559C44.7522 124.632 45.9753 122.173 46.5797 119.616C46.5804 119.613 46.579 119.609 46.5797 119.606C48.0576 115.293 48.3374 111.942 47.3968 109.606C46.7394 107.975 45.4996 106.84 43.7117 106.231C41.5495 105.496 38.9908 105.66 37.0332 105.985C36.1261 98.3308 37.5081 94.419 39.2014 92.4366C41.1409 90.1657 43.603 90.1865 44.2645 90.2361C44.7375 92.7217 45.3232 95.214 45.9504 96.5242C46.0081 96.645 46.1282 96.7147 46.2537 96.7147C46.302 96.7147 46.3516 96.7047 46.3979 96.6825C46.5649 96.602 46.6354 96.4021 46.5556 96.235C45.1045 93.2027 43.815 83.1194 43.8023 83.0175C43.8016 83.0121 43.7976 83.0081 43.7969 83.002C43.3166 77.2178 44.2155 73.5387 46.4958 72.044C50.1857 69.6248 56.4154 73.9023 56.4785 73.9459C56.6294 74.0512 56.8387 74.0143 56.9454 73.862C57.0507 73.7104 57.0138 73.5011 56.8615 73.3958C56.5918 73.2073 50.1991 68.8171 46.1296 71.4825C43.6393 73.114 42.6417 77.0078 43.1381 83.0839C43.1381 83.0906 43.1361 83.096 43.1368 83.102C43.1381 83.1181 43.1428 83.1516 43.1482 83.1932C43.3085 85.1026 43.6118 87.2192 44.0659 89.5545C43.0643 89.5283 40.6418 89.7262 38.7016 91.9891C36.0819 95.0436 35.6934 100.317 36.3851 106.102C35.4143 106.29 34.6489 106.501 34.251 106.62C34.1504 105.861 34.0122 105.055 33.8318 104.194C33.7935 104.013 33.6144 103.894 33.4346 103.935C33.2535 103.973 33.1374 104.15 33.175 104.332C33.6929 106.801 33.8774 108.83 33.7231 110.366C33.705 110.55 33.8391 110.715 34.0236 110.733C34.035 110.735 34.0464 110.735 34.0572 110.735C34.2276 110.735 34.3738 110.606 34.3906 110.433C34.4805 109.54 34.4584 108.487 34.3322 107.298C35.25 107.019 40.0179 105.682 43.4957 106.866C45.0904 107.409 46.1933 108.415 46.7743 109.856C48.0999 113.147 46.8091 118.686 42.9509 126.314C41.6461 128.477 40.4493 129.943 40.4271 129.97C40.309 130.113 40.3292 130.324 40.4714 130.442C40.5345 130.493 40.6103 130.519 40.6854 130.519C40.782 130.519 40.8779 130.477 40.9437 130.397C41.0262 130.298 41.9674 129.145 43.0811 127.398C43.4501 127.28 47.3136 126.108 48.8137 128.115C50.352 130.173 49.82 135.984 38.5507 151.972C38.4433 152.123 38.4802 152.333 38.6312 152.439C38.6902 152.481 38.7573 152.501 38.8244 152.501C38.9297 152.501 39.0337 152.45 39.0988 152.358C39.4584 151.848 39.7931 151.358 40.1353 150.863C40.3761 151.211 40.617 151.558 40.8699 151.902L43.817 155.907H36.2248C37.6725 123.801 21.8244 98.5657 21.6634 98.3134C21.5641 98.1571 21.3568 98.1108 21.2005 98.2108C21.0442 98.3107 20.9986 98.518 21.0979 98.6737C21.2575 98.9246 37.0023 124.006 35.5539 155.907H31.1006V156.578H66.2846V180.88H66.9555V155.907H44.8113C44.8005 154.608 44.8287 149.466 45.7203 142.08C49.8375 134.834 51.0685 130.01 49.3504 127.712C49.0821 127.354 48.7594 127.078 48.4038 126.869C48.8406 124.993 49.3236 123.071 49.8737 121.106C54.8677 103.255 65.9331 78.473 90.2825 61.7823C90.4348 61.6769 90.4744 61.4683 90.3697 61.3154Z"
    fill="black" />
  <path fill-rule="evenodd" clip-rule="evenodd"
    d="M79.1687 57.667H79.1653C79.066 57.6656 78.9721 57.6207 78.909 57.5442C78.8674 57.4925 74.649 52.4234 69.7596 52.6119C67.2097 52.7206 64.9005 54.2562 62.8959 57.1765C62.792 57.3288 62.5833 57.3684 62.4297 57.2624C62.2767 57.1578 62.2385 56.9491 62.3431 56.7962C64.4738 53.692 66.9601 52.0591 69.7335 51.9417C74.3095 51.7478 78.1563 55.6859 79.1727 56.8237C80.7814 55.0566 89.6323 45.8254 99.2694 45.398C103.601 45.2115 107.532 46.7988 110.942 50.131C111.075 50.2598 111.077 50.4725 110.947 50.6053C110.819 50.7375 110.605 50.7402 110.473 50.61C107.202 47.4133 103.442 45.8817 99.3009 46.0682C88.9876 46.5244 79.5182 57.4395 79.4236 57.5495C79.3599 57.624 79.2666 57.667 79.1687 57.667Z"
    fill="black" />
  <g clip-path="url(#clip0_6714_333261)">
    <rect x="159.229" y="36.63" width="71.9244" height="71.9244" fill="#F2F4F7" />
    <path d="M164.76 70.9324L191.316 44.3757" stroke="black" stroke-width="0.447836" stroke-linecap="round"
      stroke-linejoin="round" />
    <path
      d="M166.973 48.8018C168.195 48.8018 169.186 47.811 169.186 46.5888C169.186 45.3666 168.195 44.3757 166.973 44.3757C165.751 44.3757 164.76 45.3666 164.76 46.5888C164.76 47.811 165.751 48.8018 166.973 48.8018Z"
      fill="black" stroke="black" stroke-width="0.447836" stroke-linecap="round" stroke-linejoin="round" />
    <path
      d="M189.104 70.9323C190.326 70.9323 191.317 69.9415 191.317 68.7193C191.317 67.497 190.326 66.5062 189.104 66.5062C187.881 66.5062 186.891 67.497 186.891 68.7193C186.891 69.9415 187.881 70.9323 189.104 70.9323Z"
      fill="black" stroke="black" stroke-width="0.447836" stroke-linecap="round" stroke-linejoin="round" />
    <path
      d="M147.056 36.4086C147.056 33.8261 148.082 31.3493 149.908 29.5232C151.734 27.6971 154.211 26.6712 156.794 26.6712H161.22C163.791 26.6697 166.257 25.6514 168.08 23.8385L171.179 20.7402C172.084 19.8302 173.159 19.108 174.344 18.6152C175.529 18.1225 176.8 17.8688 178.083 17.8688C179.367 17.8688 180.637 18.1225 181.822 18.6152C183.007 19.108 184.083 19.8302 184.988 20.7402L188.086 23.8385C189.91 25.6514 192.376 26.6697 194.947 26.6712H199.373C201.956 26.6712 204.432 27.6971 206.258 29.5232C208.085 31.3493 209.11 33.8261 209.11 36.4086V40.8347C209.112 43.4059 210.13 45.8721 211.943 47.6952L215.041 50.7935C215.951 51.6984 216.674 52.7743 217.166 53.9592C217.659 55.1442 217.913 56.4149 217.913 57.6982C217.913 58.9816 217.659 60.2523 217.166 61.4372C216.674 62.6222 215.951 63.6981 215.041 64.603L211.943 67.7013C210.13 69.5244 209.112 71.9906 209.11 74.5617V78.9879C209.11 81.5704 208.085 84.0471 206.258 85.8733C204.432 87.6994 201.956 88.7253 199.373 88.7253H194.947C192.376 88.7268 189.91 89.7451 188.086 91.558L184.988 94.6563C184.083 95.5663 183.007 96.2885 181.822 96.7812C180.637 97.274 179.367 97.5277 178.083 97.5277C176.8 97.5277 175.529 97.274 174.344 96.7812C173.159 96.2885 172.084 95.5663 171.179 94.6563L168.08 91.558C166.257 89.7451 163.791 88.7268 161.22 88.7253H156.794C154.211 88.7253 151.734 87.6994 149.908 85.8733C148.082 84.0471 147.056 81.5704 147.056 78.9879V74.5617C147.055 71.9906 146.037 69.5244 144.224 67.7013L141.125 64.603C140.215 63.6981 139.493 62.6222 139 61.4372C138.508 60.2523 138.254 58.9816 138.254 57.6982C138.254 56.4149 138.508 55.1442 139 53.9592C139.493 52.7743 140.215 51.6984 141.125 50.7935L144.224 47.6952C146.037 45.8721 147.055 43.4059 147.056 40.8347V36.4086"
      stroke="black" stroke-width="0.447836" stroke-linecap="round" stroke-linejoin="round" />
  </g>
  <path
    d="M200.641 101.512C200.641 100.404 201.081 99.3404 201.865 98.5565C202.649 97.7726 203.712 97.3323 204.821 97.3323C205.929 97.3323 206.992 97.7726 207.776 98.5565C208.56 99.3404 209.001 100.404 209.001 101.512C211.401 102.647 213.447 104.414 214.919 106.623C216.392 108.831 217.236 111.4 217.36 114.051V120.321C217.517 121.621 217.978 122.865 218.704 123.954C219.43 125.043 220.401 125.946 221.54 126.591H188.102C189.24 125.946 190.212 125.043 190.938 123.954C191.664 122.865 192.124 121.621 192.281 120.321V114.051C192.406 111.4 193.25 108.831 194.722 106.623C196.195 104.414 198.241 102.647 200.641 101.512M198.551 126.591V128.681C198.551 130.344 199.212 131.938 200.387 133.114C201.563 134.29 203.158 134.951 204.821 134.951C206.484 134.951 208.078 134.29 209.254 133.114C210.43 131.938 211.09 130.344 211.09 128.681V126.591"
    stroke="black" stroke-width="0.501577" stroke-linecap="round" stroke-linejoin="round" />
  <defs>
    <clipPath id="clip0_6714_333261">
      <rect width="106.227" height="106.227" fill="white" transform="translate(124.927 4.54065)" />
    </clipPath>
  </defs>
</svg>