<svg width="29" height="26" viewBox="0 0 29 26" fill="none" xmlns="http://www.w3.org/2000/svg">
<path d="M9.52506 24.4284L1.68991 21.0462C1.27117 20.8654 1 20.453 1 19.9969V10.0756C1 4.55528 3.2695 3.69645 4.55207 3.45121L20.1815 1.61093C26.149 1.02209 27.2858 7.13119 27.2857 10.8115V11.5475V21.2107C27.2857 21.7874 26.8561 22.2737 26.2839 22.3448L9.52506 24.4284Z" fill="#FF0098"/>
<path d="M9.52506 24.4284L1.68991 21.0462C1.27117 20.8654 1 20.453 1 19.9969L1 10.0756M9.52506 24.4284L26.2839 22.3448C26.8561 22.2737 27.2857 21.7874 27.2857 21.2107V11.5475M9.52506 24.4284V13.7559M4.55207 3.45121L20.1815 1.61093C26.149 1.02209 27.2858 7.13119 27.2857 10.8115V11.5475M4.55207 3.45121C3.2695 3.69645 1 4.55528 1 10.0756M4.55207 3.45121C7.12888 3.1478 9.76191 6.04334 9.52506 13.7559M1 10.0756L9.52506 13.7559M9.52506 13.7559L21.6024 12.2835L27.2857 11.5475" stroke="#FFC2E4" stroke-width="2"/>
<path d="M14.8574 10.7663V17.5854C14.8574 18.0536 15.3897 18.3231 15.7671 18.0459L17.8114 16.5443C17.9797 16.4206 18.202 16.3987 18.3912 16.4869L20.9016 17.6577C21.2804 17.8344 21.7146 17.5579 21.7146 17.1399V10.2019C21.7146 9.86414 21.4231 9.60007 21.087 9.63327L15.3727 10.1976C15.0803 10.2265 14.8574 10.4725 14.8574 10.7663Z" fill="#FF0098" stroke="#FFC2E4" stroke-width="2"/>
</svg>
