<svg width="56" height="56" viewBox="0 0 56 56" fill="none" xmlns="http://www.w3.org/2000/svg">
<rect x="4" y="4" width="48" height="48" rx="24" fill="#F2F4F7"/>
<path d="M24.6438 36.5713L18.9399 34.1091C18.5212 33.9283 18.25 33.5159 18.25 33.0598L18.25 25.8067M24.6438 36.5713L36.9624 35.0398C37.5347 34.9686 37.9643 34.4823 37.9643 33.9056V26.9106M24.6438 36.5713V28.5669M20.9141 20.8384L32.6361 19.4582C37.1118 19.0166 37.9643 23.5984 37.9643 26.3587V26.9106M20.9141 20.8384C19.9521 21.0223 18.25 21.6665 18.25 25.8067M20.9141 20.8384C22.8467 20.6109 24.8214 22.7825 24.6438 28.5669M18.25 25.8067L24.6438 28.5669M24.6438 28.5669L28.6411 28.0699M37.9643 26.9106L33.9005 27.4159" stroke="#475467" stroke-width="2"/>
<path d="M28.6426 26.4542V31.1568C28.6426 31.6251 29.1749 31.8946 29.5523 31.6174L30.7898 30.7083C30.9581 30.5847 31.1804 30.5627 31.3696 30.651L32.9725 31.3985C33.3513 31.5752 33.7854 31.2987 33.7854 30.8806V26.0591C33.7854 25.7213 33.494 25.4573 33.1578 25.4905L29.1578 25.8855C28.8654 25.9144 28.6426 26.1603 28.6426 26.4542Z" stroke="#475467" stroke-width="2"/>
<rect x="4" y="4" width="48" height="48" rx="24" stroke="#F9FAFB" stroke-width="8"/>
</svg>
