<svg width="22" height="22" viewBox="0 0 22 22" fill="none" xmlns="http://www.w3.org/2000/svg">
<path d="M11.0006 0.502836C11.0006 0.502836 17.1897 0.226089 20.4711 6.42489H10.474C10.474 6.42489 8.58734 6.3643 6.97572 8.64493C6.51277 9.60216 6.01514 10.5882 6.57358 12.5315C5.76912 11.1735 2.30273 5.15923 2.30273 5.15923C2.30273 5.15923 4.74773 0.747896 11.0005 0.502836H11.0006Z" fill="#EF3F36"/>
<path d="M20.1498 16.2391C20.1498 16.2391 17.2939 21.72 10.2686 21.449C11.1366 19.9526 15.2685 12.8225 15.2685 12.8225C15.2685 12.8225 16.2667 11.2253 15.0891 8.69386C14.4901 7.81449 13.8795 6.89476 11.912 6.40456C13.4948 6.39023 20.4537 6.40456 20.4537 6.40456C20.4537 6.40456 23.0606 10.7207 20.1498 16.2391Z" fill="#FCD900"/>
<path d="M1.89473 16.2824C1.89473 16.2824 -1.4415 11.0782 2.30846 5.15039C3.17364 6.64679 7.30553 13.7769 7.30553 13.7769C7.30553 13.7769 8.19675 15.4376 10.9832 15.6855C12.0452 15.6077 13.1504 15.5414 14.5625 14.0911C13.7841 15.4636 10.2915 21.4606 10.2915 21.4606C10.2915 21.4606 5.23375 21.5528 1.89464 16.2824H1.89473Z" fill="#61BC5B"/>
<path d="M10.2656 21.501L11.6718 15.6539C11.6718 15.6539 13.217 15.5328 14.5134 14.1172C13.7089 15.5271 10.2656 21.501 10.2656 21.501V21.501Z" fill="#5AB055"/>
<path d="M6.29004 11.0667C6.29004 8.48924 8.38787 6.39893 10.9746 6.39893C13.5614 6.39893 15.6592 8.48924 15.6592 11.0667C15.6592 13.6443 13.5614 15.7345 10.9746 15.7345C8.38787 15.7317 6.29004 13.6443 6.29004 11.0667V11.0667Z" fill="white"/>
<path d="M7.07422 11.0667C7.07422 8.92164 8.81905 7.18018 10.9747 7.18018C13.1275 7.18018 14.8752 8.91878 14.8752 11.0667C14.8752 13.2118 13.1304 14.9533 10.9747 14.9533C8.82193 14.9533 7.07422 13.2118 7.07422 11.0667V11.0667Z" fill="url(#paint0_linear_103_1768)"/>
<path d="M20.4507 6.40767L14.6608 8.1001C14.6608 8.1001 13.787 6.82279 11.9092 6.40767C13.5382 6.39899 20.4507 6.40767 20.4507 6.40767V6.40767Z" fill="#EACA05"/>
<path d="M6.46075 12.3182C5.64759 10.914 2.30273 5.15918 2.30273 5.15918L6.59091 9.38593C6.59091 9.38593 6.15105 10.2884 6.31605 11.58L6.46067 12.3182H6.46075Z" fill="#DF3A32"/>
<defs>
<linearGradient id="paint0_linear_103_1768" x1="10.9745" y1="7.23505" x2="10.9745" y2="14.7193" gradientUnits="userSpaceOnUse">
<stop stop-color="#86BBE5"/>
<stop offset="1" stop-color="#1072BA"/>
</linearGradient>
</defs>
</svg>
