<svg width="19" height="19" viewBox="0 0 19 19" fill="none" xmlns="http://www.w3.org/2000/svg">
<path d="M16.4997 17.4999H9.83303M1.08301 17.9166L5.7074 16.138C6.00318 16.0242 6.15107 15.9673 6.28944 15.8931C6.41234 15.8271 6.52951 15.751 6.63971 15.6654C6.76378 15.5692 6.87582 15.4571 7.09991 15.233L16.4997 5.83326C17.4202 4.91279 17.4202 3.4204 16.4997 2.49993C15.5792 1.57945 14.0868 1.57945 13.1664 2.49992L3.76658 11.8997C3.54249 12.1238 3.43044 12.2358 3.33417 12.3599C3.24865 12.4701 3.17251 12.5873 3.10654 12.7102C3.03226 12.8485 2.97538 12.9964 2.86162 13.2922L1.08301 17.9166ZM1.08301 17.9166L2.79811 13.4574C2.92084 13.1383 2.9822 12.9787 3.08746 12.9057C3.17944 12.8418 3.29326 12.8176 3.40325 12.8386C3.52912 12.8627 3.64999 12.9836 3.89174 13.2253L5.77432 15.1079C6.01607 15.3496 6.13694 15.4705 6.16098 15.5964C6.18198 15.7064 6.15783 15.8202 6.09396 15.9122C6.02088 16.0174 5.86133 16.0788 5.54223 16.2015L1.08301 17.9166Z" stroke="#667085" stroke-width="1.66667" stroke-linecap="round" stroke-linejoin="round"/>
</svg>
