<svg width="20" height="20" viewBox="0 0 20 20" fill="none" xmlns="http://www.w3.org/2000/svg">
<path d="M9.1665 3.33381H5.6665C4.26637 3.33381 3.56631 3.33381 3.03153 3.60629C2.56112 3.84598 2.17867 4.22843 1.93899 4.69883C1.6665 5.23361 1.6665 5.93368 1.6665 7.33381V14.3338C1.6665 15.7339 1.6665 16.434 1.93899 16.9688C2.17867 17.4392 2.56112 17.8216 3.03153 18.0613C3.56631 18.3338 4.26637 18.3338 5.6665 18.3338H12.6665C14.0666 18.3338 14.7667 18.3338 15.3015 18.0613C15.7719 17.8216 16.1543 17.4392 16.394 16.9688C16.6665 16.434 16.6665 15.7339 16.6665 14.3338V10.8338M6.66648 13.3338H8.06193C8.46959 13.3338 8.67341 13.3338 8.86522 13.2878C9.03528 13.2469 9.19786 13.1796 9.34698 13.0882C9.51517 12.9851 9.6593 12.841 9.94755 12.5528L17.9165 4.58381C18.6069 3.89345 18.6069 2.77416 17.9165 2.08381C17.2261 1.39345 16.1069 1.39345 15.4165 2.08381L7.44753 10.0528C7.15928 10.341 7.01515 10.4851 6.91208 10.6533C6.8207 10.8025 6.75336 10.965 6.71253 11.1351C6.66648 11.3269 6.66648 11.5307 6.66648 11.9384V13.3338Z" stroke="#344054" stroke-width="1.66667" stroke-linecap="round" stroke-linejoin="round"/>
</svg>
