<svg width="56" height="56" viewBox="0 0 56 56" fill="none" xmlns="http://www.w3.org/2000/svg">
<rect x="4" y="4" width="48" height="48" rx="24" fill="#F2F4F7"/>
<path d="M28 24C25.7909 24 24 25.7909 24 28C24 30.2091 25.7909 32 28 32C30.2091 32 32 30.2091 32 28C32 25.7909 30.2091 24 28 24ZM28 24H37.17M19.95 22.06L24.54 30M26.88 37.94L31.46 30M38 28C38 33.5228 33.5228 38 28 38C22.4772 38 18 33.5228 18 28C18 22.4772 22.4772 18 28 18C33.5228 18 38 22.4772 38 28Z" stroke="#475467" stroke-width="2" stroke-linecap="round" stroke-linejoin="round"/>
<rect x="4" y="4" width="48" height="48" rx="24" stroke="#F9FAFB" stroke-width="8"/>
</svg>
