<svg width="20" height="18" viewBox="0 0 20 18" fill="none" xmlns="http://www.w3.org/2000/svg">
<path d="M10.8337 4.83333L9.90404 2.9741C9.6365 2.439 9.50271 2.17144 9.30313 1.97597C9.12664 1.80311 8.91393 1.67164 8.68039 1.59109C8.4163 1.5 8.11716 1.5 7.5189 1.5H4.33366C3.40024 1.5 2.93353 1.5 2.57701 1.68166C2.2634 1.84144 2.00844 2.09641 1.84865 2.41002C1.66699 2.76654 1.66699 3.23325 1.66699 4.16667V4.83333M1.66699 4.83333H14.3337C15.7338 4.83333 16.4339 4.83333 16.9686 5.10582C17.439 5.3455 17.8215 5.72795 18.0612 6.19836C18.3337 6.73314 18.3337 7.4332 18.3337 8.83333V12.5C18.3337 13.9001 18.3337 14.6002 18.0612 15.135C17.8215 15.6054 17.439 15.9878 16.9686 16.2275C16.4339 16.5 15.7338 16.5 14.3337 16.5H5.66699C4.26686 16.5 3.5668 16.5 3.03202 16.2275C2.56161 15.9878 2.17916 15.6054 1.93948 15.135C1.66699 14.6002 1.66699 13.9001 1.66699 12.5V4.83333ZM10.0003 13.1667V8.16667M7.50033 10.6667H12.5003" stroke="#344054" stroke-width="1.66667" stroke-linecap="round" stroke-linejoin="round"/>
</svg>
