<svg width="56" height="50" viewBox="0 0 56 50" fill="none" xmlns="http://www.w3.org/2000/svg">
<path d="M1.94097 42.4932C0.764619 41.975 0 40.8234 0 39.5566V20.4399C0 10.7089 4.11722 4.4902 10.94 3.74166C13.4104 3.45376 16.5277 3.10828 19.8215 2.70522C25.9973 1.95667 32.9377 1.15055 38.3489 0.689908C38.8195 0.632328 39.3488 0.632324 39.8194 0.632324C44.76 0.632324 49.0537 2.87795 51.8769 6.85099C54.5237 10.5937 55.8765 15.8335 55.8765 22.3977V41.975C55.8765 43.5872 54.6414 44.9116 53.0533 45.1419L20.1744 49.518C19.2921 49.6331 18.351 49.518 17.5276 49.1725L1.94097 42.4932Z" fill="#FF0098"/>
<path d="M51.9947 22.5129C51.9947 15.3153 50.289 10.1331 46.9953 7.13891C44.819 5.18118 41.937 4.2599 38.7608 4.5478C30.644 5.23876 19.8216 6.50554 11.3519 7.59957C6.70533 8.17537 3.94092 12.7242 3.94092 20.4975V38.2323C3.94092 38.8081 4.29382 39.3839 4.82318 39.6142L18.9393 45.7177C19.1158 45.7753 19.3511 45.8329 19.5863 45.8329C19.6452 45.8329 19.704 45.8329 19.8216 45.8329L50.7007 41.7447C51.4654 41.6295 52.0536 40.9961 52.0536 40.2476V22.5129C51.9947 22.5129 51.9947 22.5129 51.9947 22.5129Z" fill="white"/>
<path d="M38.937 7.54195C41.2897 7.31163 43.2895 7.94501 44.8187 9.32694C47.289 11.515 48.6418 15.6032 48.8183 21.1885L41.5249 22.0522V18.5974C41.5249 18.1943 41.3485 17.7337 40.9956 17.4458C40.6427 17.1579 40.2309 17.0427 39.8192 17.1003L29.7026 18.3095C28.938 18.4246 28.3498 19.058 28.3498 19.8065V23.6644L20.9977 24.5281C20.8212 16.6396 19.1743 12.206 17.1157 9.90274C23.4092 9.1542 33.6434 8.00259 38.937 7.54195Z" fill="#FF53D2"/>
<path d="M38.5254 20.2671V31.0922L34.8787 29.1345L31.4673 31.7831V21.1308L38.5254 20.2671Z" fill="#FF0098"/>
<path d="M11.8811 10.5359C15.5278 10.5359 17.6452 15.2575 17.9393 23.9521L6.94043 19.5184C7.05806 16.5242 7.82269 10.5359 11.8811 10.5359Z" fill="#FF0098"/>
<path d="M6.94043 22.7429L17.9981 27.2342V42.0323L6.94043 37.2532V22.7429Z" fill="#FF0098"/>
<path d="M48.8773 38.9235L21.0566 42.6086V27.5226L28.4088 26.6589V34.8929C28.4088 35.4687 28.7617 35.9869 29.2911 36.2172C29.5263 36.3324 29.7028 36.39 29.9381 36.39C30.291 36.39 30.6439 36.2748 30.8792 36.0445L35.1728 32.7048L39.29 34.9504C39.7606 35.1808 40.3487 35.1808 40.8193 34.9504C41.2898 34.6625 41.5839 34.2019 41.5839 33.6837V25.1618L48.8773 24.2981V38.9235V38.9235Z" fill="#FF53D2"/>
</svg>
