<svg width="80" height="50" viewBox="0 0 80 50" fill="none" xmlns="http://www.w3.org/2000/svg">
<path d="M36.0978 29.9504C29.8587 32.167 23.9867 31.6231 18.1342 29.8553C15.6241 29.0872 13.3145 27.8869 11.3001 26.2931C6.57645 22.5947 3.27287 17.758 1.28964 12.0778C0.109439 8.67819 0.197591 5.30969 2.63144 2.30529C2.98 1.88925 3.33648 1.45407 3.75569 1.13441C4.82894 0.300888 6.15515 0.512681 6.92246 1.70326C7.2708 2.25036 7.4001 2.95341 7.65536 3.61887C7.10996 4.93924 5.23729 4.92732 5.07362 6.60698C4.91174 8.17537 5.05534 9.64594 5.64441 11.0541C7.79542 16.2212 10.7879 20.795 15.6073 23.7266C20.4268 26.6582 25.795 27.3523 31.361 26.6049C31.616 26.5759 31.8508 26.3817 32.0887 26.2335C32.1848 26.1612 32.2512 26.0542 32.4294 25.8366C31.8837 24.8048 31.316 23.7191 30.7752 22.622C29.4473 19.9007 28.4864 17.0397 28.3459 13.9575C28.0813 8.18081 30.9718 4.1778 36.5205 2.61682C39.0696 1.90013 41.6366 1.72846 44.2325 2.1287C47.6889 2.63802 50.3103 4.52725 52.0406 7.50442C53.9151 10.7204 53.8695 14.0393 51.7894 17.257C49.9665 20.0658 47.6346 22.3955 44.9776 24.3893C43.7626 25.2986 42.5744 26.1966 41.1403 27.2619C43.8316 30.4793 47.5349 31.9418 50.9055 33.7821C54.9724 36.022 61.8866 37.198 66.9263 36.8157C66.5497 35.428 65.3078 34.6911 64.7292 33.5784C64.1804 32.5005 63.6474 31.3843 63.3317 30.2235C63.0989 29.3433 63.714 28.6565 64.544 28.3049C65.3551 27.9455 66.1639 27.966 66.7637 28.7066C67.453 29.5513 68.0114 30.4988 68.7621 31.3018C71.443 34.2236 74.2169 37.027 77.7652 38.9183C78.1267 39.1125 78.4883 39.3066 78.8073 39.5504C79.6292 40.1811 80.0525 41.028 79.846 42.0627C79.6316 43.1166 78.8248 43.6794 77.7999 43.8609C75.7881 44.2395 73.7481 44.4721 71.7502 44.9237C68.6771 45.6255 65.6649 46.5541 63.0584 48.4792C62.7353 48.7265 62.3635 48.9314 61.9887 49.0902C60.7254 49.6884 59.6603 49.5397 59.0435 48.68C58.4077 47.8126 58.4115 46.627 59.2255 45.6191C59.8186 44.8785 60.5955 44.2809 61.3347 43.6679C61.9163 43.1689 62.5467 42.7124 63.6467 41.8676C58.1829 40.9771 53.1654 40.4502 48.6596 38.0962C44.2402 35.8002 40.1031 33.1953 36.0978 29.9504ZM37.3456 24.1488C40.8145 22.2216 43.7375 20.2257 46.1252 17.4934C46.9263 16.5699 47.7135 15.5734 48.2931 14.4912C49.6085 12.0552 49.2518 10.1382 47.3734 8.10785C46.1076 6.73375 44.5054 5.95995 42.6973 5.95228C41.0826 5.95736 39.4017 6.06946 37.8603 6.48558C34.0563 7.51277 32.4183 9.92747 32.8154 13.8324C33.1766 17.6105 34.6464 20.9506 37.3456 24.1488Z" fill="#FF46AF"/>
</svg>
