<svg width="14" height="16" viewBox="0 0 14 16" fill="none" xmlns="http://www.w3.org/2000/svg">
<path d="M10.7257 7.3465V5.05253C10.7257 2.94099 9.01395 1.22925 6.90241 1.22925C4.79087 1.22925 3.07913 2.94099 3.07913 5.05253V7.3465M4.45551 14.9931H9.34931C10.6341 14.9931 11.2764 14.9931 11.7671 14.743C12.1988 14.5231 12.5497 14.1722 12.7696 13.7405C13.0197 13.2498 13.0197 12.6075 13.0197 11.3227V11.0169C13.0197 9.73211 13.0197 9.08974 12.7696 8.59903C12.5497 8.16739 12.1988 7.81646 11.7671 7.59653C11.2764 7.3465 10.6341 7.3465 9.34931 7.3465H4.45551C3.17076 7.3465 2.52839 7.3465 2.03769 7.59653C1.60605 7.81646 1.25511 8.16739 1.03518 8.59903C0.785156 9.08974 0.785156 9.73211 0.785156 11.0169V11.3227C0.785156 12.6075 0.785156 13.2498 1.03518 13.7405C1.25511 14.1722 1.60605 14.5231 2.03769 14.743C2.52839 14.9931 3.17076 14.9931 4.45551 14.9931Z" stroke="#475467" stroke-width="1.52931" stroke-linecap="round" stroke-linejoin="round"/>
</svg>
