<svg width="15" height="16" viewBox="0 0 15 16" fill="none" xmlns="http://www.w3.org/2000/svg">
<path d="M11.6573 7.10566V4.81169C11.6573 2.70015 9.94559 0.988403 7.83405 0.988403C5.72251 0.988403 4.01077 2.70015 4.01077 4.81169V7.10566M5.38715 14.7522H10.281C11.5657 14.7522 12.2081 14.7522 12.6988 14.5022C13.1304 14.2823 13.4813 13.9313 13.7013 13.4997C13.9513 13.009 13.9513 12.3666 13.9513 11.0819V10.776C13.9513 9.49126 13.9513 8.84889 13.7013 8.35819C13.4813 7.92655 13.1304 7.57561 12.6988 7.35568C12.2081 7.10566 11.5657 7.10566 10.281 7.10566H5.38715C4.10241 7.10566 3.46003 7.10566 2.96933 7.35568C2.53769 7.57561 2.18676 7.92655 1.96682 8.35819C1.7168 8.84889 1.7168 9.49126 1.7168 10.776V11.0819C1.7168 12.3666 1.7168 13.009 1.96682 13.4997C2.18676 13.9313 2.53769 14.2823 2.96933 14.5022C3.46003 14.7522 4.10241 14.7522 5.38715 14.7522Z" stroke="#CC0174" stroke-width="1.52931" stroke-linecap="round" stroke-linejoin="round"/>
</svg>
