<svg width="197" height="54" viewBox="0 0 197 54" fill="none" xmlns="http://www.w3.org/2000/svg">
<path d="M81.954 42.7153C79.8573 42.7153 77.886 42.3018 76.0403 41.4749C74.1946 40.6333 72.5704 39.4742 71.1676 37.9976C69.7796 36.521 68.687 34.8156 67.8896 32.8813C67.107 30.9322 66.7157 28.8502 66.7157 26.6353C66.7157 24.4057 67.107 22.3237 67.8896 20.3894C68.687 18.4403 69.7796 16.7349 71.1676 15.2731C72.5704 13.7965 74.1946 12.6448 76.0403 11.8179C77.886 10.9762 79.8573 10.5554 81.954 10.5554C84.4642 10.5554 86.775 11.1387 88.8865 12.3052C90.9981 13.4569 92.7478 14.9999 94.1358 16.9342L89.3074 19.5256C88.4362 18.4477 87.3509 17.5839 86.0515 16.9342C84.7669 16.2845 83.4011 15.9597 81.954 15.9597C80.5956 15.9597 79.3183 16.2402 78.1223 16.8013C76.9263 17.3477 75.8779 18.1155 74.9772 19.1048C74.0765 20.0793 73.3751 21.2163 72.8731 22.5157C72.371 23.8003 72.12 25.1735 72.12 26.6353C72.12 28.1119 72.371 29.4925 72.8731 30.7771C73.3899 32.0618 74.0986 33.1987 74.9993 34.188C75.9001 35.1626 76.941 35.9304 78.1223 36.4915C79.3183 37.0378 80.5956 37.311 81.954 37.311C83.4306 37.311 84.8038 36.9861 86.0737 36.3365C87.3583 35.672 88.4362 34.8008 89.3074 33.7229L94.1358 36.3365C92.7478 38.256 90.9981 39.799 88.8865 40.9655C86.775 42.132 84.4642 42.7153 81.954 42.7153ZM118.604 28.1415V42.1394H113.2V29.559C113.2 28.6878 112.985 27.8978 112.557 27.1891C112.129 26.4655 111.553 25.8971 110.83 25.4836C110.121 25.0554 109.331 24.8413 108.46 24.8413C107.589 24.8413 106.791 25.0554 106.068 25.4836C105.359 25.8971 104.79 26.4655 104.362 27.1891C103.949 27.8978 103.742 28.6878 103.742 29.559V42.1394H98.3378L98.3156 8.91641H103.72L103.742 21.962C104.495 21.1646 105.396 20.5371 106.444 20.0793C107.493 19.6068 108.622 19.3706 109.833 19.3706C111.442 19.3706 112.912 19.7693 114.241 20.5666C115.569 21.3492 116.625 22.4049 117.408 23.7339C118.205 25.048 118.604 26.5172 118.604 28.1415ZM132.329 42.7153C130.292 42.7153 128.431 42.1911 126.748 41.1427C125.079 40.0943 123.743 38.6842 122.739 36.9123C121.75 35.1404 121.255 33.184 121.255 31.0429C121.255 29.4335 121.543 27.9273 122.119 26.5246C122.695 25.1071 123.485 23.8668 124.489 22.8036C125.508 21.7257 126.689 20.8841 128.033 20.2787C129.376 19.6733 130.809 19.3706 132.329 19.3706C134.057 19.3706 135.637 19.7397 137.069 20.478C138.516 21.2015 139.742 22.1982 140.746 23.4681C141.75 24.7379 142.481 26.185 142.939 27.8092C143.396 29.4335 143.5 31.1315 143.249 32.9034H127.058C127.265 33.7303 127.604 34.476 128.077 35.1404C128.549 35.7901 129.147 36.3143 129.871 36.713C130.594 37.0969 131.414 37.2962 132.329 37.311C133.274 37.3258 134.131 37.1043 134.899 36.6465C135.681 36.174 136.331 35.5391 136.848 34.7418L142.363 36.0264C141.462 37.9902 140.118 39.5997 138.332 40.8548C136.545 42.0951 134.544 42.7153 132.329 42.7153ZM126.881 28.8502H137.778C137.616 27.9643 137.269 27.1669 136.737 26.4582C136.22 25.7346 135.578 25.1588 134.81 24.7306C134.042 24.3024 133.215 24.0882 132.329 24.0882C131.443 24.0882 130.624 24.3024 129.871 24.7306C129.118 25.144 128.476 25.7125 127.944 26.436C127.427 27.1448 127.073 27.9495 126.881 28.8502ZM153.559 42.5381C152.408 42.4643 151.293 42.2354 150.215 41.8515C149.152 41.4528 148.207 40.9138 147.38 40.2346C146.553 39.5554 145.918 38.7433 145.475 37.7983L150.038 35.8492C150.215 36.1445 150.503 36.462 150.901 36.8016C151.3 37.1264 151.773 37.3996 152.319 37.6211C152.88 37.8426 153.493 37.9533 154.157 37.9533C154.718 37.9533 155.25 37.8795 155.752 37.7318C156.269 37.5694 156.682 37.3258 156.992 37.0009C157.317 36.6761 157.48 36.2552 157.48 35.7384C157.48 35.1921 157.288 34.7713 156.904 34.476C156.535 34.1659 156.062 33.937 155.486 33.7894C154.925 33.6269 154.379 33.4793 153.847 33.3464C152.444 33.0658 151.138 32.6302 149.927 32.0396C148.731 31.449 147.764 30.6885 147.025 29.7583C146.302 28.8133 145.94 27.6763 145.94 26.3474C145.94 24.8856 146.324 23.6231 147.092 22.56C147.874 21.4969 148.886 20.6774 150.126 20.1015C151.381 19.5256 152.732 19.2377 154.179 19.2377C155.937 19.2377 157.546 19.6068 159.008 20.3451C160.484 21.0686 161.651 22.0949 162.507 23.4238L158.233 25.9487C158.026 25.5944 157.738 25.2695 157.369 24.9742C157 24.6641 156.579 24.4131 156.106 24.2211C155.634 24.0144 155.139 23.8963 154.622 23.8668C153.958 23.8372 153.353 23.8963 152.806 24.0439C152.26 24.1916 151.817 24.4426 151.477 24.797C151.152 25.1514 150.99 25.6239 150.99 26.2145C150.99 26.7756 151.211 27.1964 151.654 27.477C152.097 27.7428 152.629 27.9495 153.249 28.0972C153.884 28.2448 154.489 28.4072 155.065 28.5844C156.365 29.0126 157.583 29.5368 158.72 30.157C159.872 30.7771 160.794 31.5376 161.488 32.4383C162.182 33.339 162.515 34.4169 162.485 35.672C162.485 37.1043 162.057 38.3594 161.201 39.4373C160.344 40.5004 159.237 41.3125 157.878 41.8736C156.535 42.4347 155.095 42.6562 153.559 42.5381ZM178.147 25.395H173.851V42.1394H168.446V25.395H165.168V19.9907H168.446V13.0361H173.851V19.9907H178.147V25.395ZM182.174 42.1394L182.152 19.9907H187.556L187.578 21.962C188.331 21.1646 189.232 20.5371 190.28 20.0793C191.329 19.6068 192.458 19.3706 193.669 19.3706C194.481 19.3706 195.293 19.4887 196.105 19.725L193.979 25.1735C193.418 24.952 192.857 24.8413 192.296 24.8413C191.425 24.8413 190.627 25.0554 189.904 25.4836C189.195 25.8971 188.627 26.4655 188.198 27.1891C187.785 27.8978 187.578 28.6878 187.578 29.559V42.1394H182.174Z" fill="#FF0098"/>
<path d="M1.94097 43.4932C0.764619 42.975 0 41.8234 0 40.5566V21.4399C0 11.7089 4.11722 5.4902 10.94 4.74166C13.4104 4.45376 16.5277 4.10828 19.8215 3.70522C25.9973 2.95667 32.9377 2.15055 38.3489 1.68991C38.8195 1.63233 39.3488 1.63232 39.8194 1.63232C44.76 1.63232 49.0537 3.87795 51.8769 7.85099C54.5237 11.5937 55.8765 16.8335 55.8765 23.3977V42.975C55.8765 44.5872 54.6414 45.9116 53.0533 46.1419L20.1744 50.518C19.2921 50.6331 18.351 50.518 17.5276 50.1725L1.94097 43.4932Z" fill="#FF0098"/>
<path d="M51.9947 23.5129C51.9947 16.3153 50.289 11.1331 46.9953 8.13891C44.819 6.18118 41.937 5.2599 38.7608 5.5478C30.644 6.23876 19.8216 7.50554 11.3519 8.59957C6.70533 9.17537 3.94092 13.7242 3.94092 21.4975V39.2323C3.94092 39.8081 4.29382 40.3839 4.82318 40.6142L18.9393 46.7177C19.1158 46.7753 19.3511 46.8329 19.5863 46.8329C19.6452 46.8329 19.704 46.8329 19.8216 46.8329L50.7007 42.7447C51.4654 42.6295 52.0536 41.9961 52.0536 41.2476V23.5129C51.9947 23.5129 51.9947 23.5129 51.9947 23.5129Z" fill="white"/>
<path d="M38.937 8.54195C41.2897 8.31163 43.2895 8.94501 44.8187 10.3269C47.289 12.515 48.6418 16.6032 48.8183 22.1885L41.5249 23.0522V19.5974C41.5249 19.1943 41.3485 18.7337 40.9956 18.4458C40.6427 18.1579 40.2309 18.0427 39.8192 18.1003L29.7026 19.3095C28.938 19.4246 28.3498 20.058 28.3498 20.8065V24.6644L20.9977 25.5281C20.8212 17.6396 19.1743 13.206 17.1157 10.9027C23.4092 10.1542 33.6434 9.00259 38.937 8.54195Z" fill="#FF53D2"/>
<path d="M38.5254 21.2671V32.0922L34.8787 30.1345L31.4673 32.7831V22.1308L38.5254 21.2671Z" fill="#FF0098"/>
<path d="M11.8811 11.5359C15.5278 11.5359 17.6452 16.2575 17.9393 24.9521L6.94043 20.5184C7.05806 17.5242 7.82269 11.5359 11.8811 11.5359Z" fill="#FF0098"/>
<path d="M6.94043 23.7429L17.9981 28.2342V43.0323L6.94043 38.2532V23.7429Z" fill="#FF0098"/>
<path d="M48.8773 39.9235L21.0566 43.6086V28.5226L28.4088 27.6589V35.8929C28.4088 36.4687 28.7617 36.9869 29.2911 37.2172C29.5263 37.3324 29.7028 37.39 29.9381 37.39C30.291 37.39 30.6439 37.2748 30.8792 37.0445L35.1728 33.7048L39.29 35.9504C39.7606 36.1808 40.3487 36.1808 40.8193 35.9504C41.2898 35.6625 41.5839 35.2019 41.5839 34.6837V26.1618L48.8773 25.2981V39.9235V39.9235Z" fill="#FF53D2"/>
</svg>
