<svg width="56" height="56" viewBox="0 0 56 56" fill="none" xmlns="http://www.w3.org/2000/svg">
<rect x="4" y="4" width="48" height="48" rx="24" fill="#F2F4F7"/>
<path d="M24.3766 31.6164L18.7197 37.2733M27.6943 22.6419L26.1334 24.2028C26.0061 24.3301 25.9424 24.3938 25.8699 24.4444C25.8055 24.4893 25.736 24.5265 25.663 24.5551C25.5806 24.5874 25.4924 24.6051 25.3158 24.6404L21.6513 25.3733C20.699 25.5637 20.2229 25.659 20.0001 25.91C19.8061 26.1287 19.7174 26.4214 19.7576 26.711C19.8037 27.0435 20.147 27.3869 20.8337 28.0736L27.9195 35.1593C28.6062 35.846 28.9496 36.1894 29.282 36.2355C29.5716 36.2756 29.8643 36.187 30.083 35.9929C30.3341 35.7702 30.4293 35.294 30.6198 34.3417L31.3527 30.6773C31.388 30.5007 31.4056 30.4124 31.4379 30.3301C31.4666 30.257 31.5038 30.1876 31.5487 30.1232C31.5992 30.0507 31.6629 29.987 31.7902 29.8597L33.3511 28.2988C33.4325 28.2174 33.4732 28.1767 33.518 28.1411C33.5577 28.1096 33.5998 28.0811 33.6439 28.0559C33.6935 28.0276 33.7464 28.0049 33.8522 27.9595L36.3466 26.8905C37.0743 26.5786 37.4381 26.4227 37.6034 26.1707C37.7479 25.9504 37.7996 25.6819 37.7473 25.4236C37.6874 25.1283 37.4075 24.8483 36.8477 24.2885L31.7045 19.1454C31.1447 18.5856 30.8648 18.3056 30.5695 18.2458C30.3112 18.1934 30.0427 18.2451 29.8223 18.3897C29.5703 18.5549 29.4144 18.9188 29.1025 19.6465L28.0335 22.1408C27.9882 22.2467 27.9655 22.2996 27.9372 22.3492C27.912 22.3932 27.8835 22.4353 27.8519 22.4751C27.8164 22.5198 27.7757 22.5605 27.6943 22.6419Z" stroke="#475467" stroke-width="2" stroke-linecap="round" stroke-linejoin="round"/>
<rect x="4" y="4" width="48" height="48" rx="24" stroke="#F9FAFB" stroke-width="8"/>
</svg>
