<svg width="18" height="20" viewBox="0 0 18 20" fill="none" xmlns="http://www.w3.org/2000/svg">
<path d="M6.82888 16.0655L7.31591 17.1609C7.4607 17.487 7.69698 17.764 7.9961 17.9584C8.29522 18.1529 8.64434 18.2563 9.0011 18.2563C9.35786 18.2563 9.70697 18.1529 10.0061 17.9584C10.3052 17.764 10.5415 17.487 10.6863 17.1609L11.1733 16.0655C11.3467 15.6769 11.6383 15.3528 12.0067 15.1396C12.3773 14.9258 12.8061 14.8347 13.2317 14.8794L14.4233 15.0063C14.778 15.0438 15.136 14.9776 15.4539 14.8157C15.7717 14.6538 16.0358 14.4032 16.2141 14.0942C16.3925 13.7854 16.4776 13.4315 16.4588 13.0753C16.4401 12.7192 16.3184 12.3761 16.1085 12.0877L15.4029 11.1183C15.1517 10.7705 15.0175 10.3519 15.0196 9.92293C15.0195 9.49509 15.155 9.07823 15.4067 8.73219L16.1122 7.76275C16.3221 7.4744 16.4438 7.13132 16.4625 6.77516C16.4813 6.419 16.3962 6.06505 16.2178 5.75627C16.0395 5.4473 15.7754 5.19667 15.4576 5.03479C15.1397 4.8729 14.7817 4.80671 14.427 4.84423L13.2354 4.97108C12.8098 5.01577 12.381 4.9247 12.0104 4.7109C11.6413 4.49648 11.3496 4.17073 11.177 3.78034L10.6863 2.68497C10.5415 2.35891 10.3052 2.08186 10.0061 1.88743C9.70697 1.693 9.35786 1.58954 9.0011 1.5896C8.64434 1.58954 8.29522 1.693 7.9961 1.88743C7.69698 2.08186 7.4607 2.35891 7.31591 2.68497L6.82888 3.78034C6.65632 4.17073 6.3646 4.49648 5.99554 4.7109C5.62489 4.9247 5.1961 5.01577 4.77054 4.97108L3.57517 4.84423C3.22045 4.80671 2.86246 4.8729 2.5446 5.03479C2.22675 5.19667 1.96269 5.4473 1.78443 5.75627C1.60595 6.06505 1.52092 6.419 1.53965 6.77516C1.55839 7.13132 1.68009 7.4744 1.88999 7.76275L2.59554 8.73219C2.84716 9.07823 2.98266 9.49509 2.98258 9.92293C2.98266 10.3508 2.84716 10.7676 2.59554 11.1137L1.88999 12.0831C1.68009 12.3715 1.55839 12.7145 1.53965 13.0707C1.52092 13.4269 1.60595 13.7808 1.78443 14.0896C1.96286 14.3984 2.22696 14.6489 2.54476 14.8108C2.86257 14.9726 3.22047 15.0389 3.57517 15.0016L4.76684 14.8748C5.1924 14.8301 5.62119 14.9212 5.99184 15.135C6.36228 15.3488 6.65535 15.6746 6.82888 16.0655Z" stroke="#344054" stroke-width="1.67" stroke-linecap="round" stroke-linejoin="round"/>
<path d="M8.99961 12.4229C10.3803 12.4229 11.4996 11.3036 11.4996 9.92293C11.4996 8.54222 10.3803 7.42293 8.99961 7.42293C7.6189 7.42293 6.49961 8.54222 6.49961 9.92293C6.49961 11.3036 7.6189 12.4229 8.99961 12.4229Z" stroke="#344054" stroke-width="1.67" stroke-linecap="round" stroke-linejoin="round"/>
</svg>
